<svg xmlns="http://www.w3.org/2000/svg" width="24" height="24" fill="none" viewBox="0 0 24 24"><path fill="#ff4b44" d="M11.8 4.15c.99 0 2.7.24 4.18 1.27 1.52 1.07 2.72 2.9 2.72 5.9v5.53H21v3.6c0 .77-.63 1.4-1.4 1.4H4.26A1.4 1.4 0 0 1 3 20.44v-3.6h2.3v-5.52c0-2.98 1.08-4.82 2.5-5.89a7 7 0 0 1 4-1.29m-7.4 16.3h15.2v-2.2H4.4zm7.4-14.9c-.81 0-2.1.2-3.16 1-1.02.78-1.94 2.18-1.94 4.78v5.52h10.6v-5.52c0-2.57-1-3.97-2.12-4.76a6 6 0 0 0-3.38-1.02m1.1 1.5a3.26 3.26 0 0 1 3.29 3.29h-1.4a1.86 1.86 0 0 0-1.88-1.88z"/></svg>